<?xml version="1.0" encoding="UTF-8" standalone="no"?>
<svg xmlns="http://www.w3.org/2000/svg" width="500.0" height="500.0" viewBox="0 0 500.0 500.0">
<path style="fill:none;stroke:#000000;stroke-width:1px" id="id1" d="m 10,10 480,0 0,480 -10,0 0,-470 -470,0 z"/>
<path style="fill:none;stroke:#000000;stroke-width:1px" id="id2" d="m 10,490 460,0 0,-10 -450,0 0,-450 -10,0 z"/>
<path style="fill:none;stroke:#000000;stroke-width:1px" id="id4" d="m 30,30 30,0 0,30 -30,0 z"/>
<path style="fill:none;stroke:#000000;stroke-width:1px" id="id4_r1" d="m 40,40 30,0 0,30 -30,0 z"/>
<path style="fill:none;stroke:#000000;stroke-width:1px" id="id4_r2" d="m 50,50 30,0 0,30 -30,0 z"/>
<path style="fill:none;stroke:#000000;stroke-width:1px" id="id4_r3" d="m 60,60 30,0 0,30 -30,0 z"/>
<path style="fill:none;stroke:#000000;stroke-width:1px" id="id4_r4" d="m 70,70 30,0 0,30 -30,0 z"/>
<path style="fill:none;stroke:#000000;stroke-width:1px" id="id4_r5" d="m 80,80 30,0 0,30 -30,0 z"/>
<path style="fill:none;stroke:#000000;stroke-width:1px" id="id4_r6" d="m 90,90 30,0 0,30 -30,0 z"/>
<path style="fill:none;stroke:#000000;stroke-width:1px" id="id4_r7" d="m 100,100 30,0 0,30 -30,0 z"/>
<path style="fill:none;stroke:#000000;stroke-width:1px" id="id4_r8" d="m 110,110 30,0 0,30 -30,0 z"/>
<path style="fill:none;stroke:#000000;stroke-width:1px" id="id4_r9" d="m 120,120 30,0 0,30 -30,0 z"/>
<path style="fill:none;stroke:#000000;stroke-width:1px" id="id4_r10" d="m 130,130 30,0 0,30 -30,0 z"/>
<path style="fill:none;stroke:#000000;stroke-width:1px" id="id4_r11" d="m 140,140 30,0 0,30 -30,0 z"/>
<path style="fill:none;stroke:#000000;stroke-width:1px" id="id4_r12" d="m 150,150 30,0 0,30 -30,0 z"/>
<path style="fill:none;stroke:#000000;stroke-width:1px" id="id4_r13" d="m 160,160 30,0 0,30 -30,0 z"/>
<path style="fill:none;stroke:#000000;stroke-width:1px" id="id4_r14" d="m 170,170 30,0 0,30 -30,0 z"/>
<path style="fill:none;stroke:#000000;stroke-width:1px" id="id4_r15" d="m 180,180 30,0 0,30 -30,0 z"/>
<path style="fill:none;stroke:#000000;stroke-width:1px" id="id4_r16" d="m 190,190 30,0 0,30 -30,0 z"/>
<path style="fill:none;stroke:#000000;stroke-width:1px" id="id4_r17" d="m 200,200 30,0 0,30 -30,0 z"/>
<path style="fill:none;stroke:#000000;stroke-width:1px" id="id4_r18" d="m 210,210 30,0 0,30 -30,0 z"/>
<path style="fill:none;stroke:#000000;stroke-width:1px" id="id4_r19" d="m 220,220 30,0 0,30 -30,0 z"/>
<path style="fill:none;stroke:#000000;stroke-width:1px" id="id4_r20" d="m 230,230 30,0 0,30 -30,0 z"/>
<path style="fill:none;stroke:#000000;stroke-width:1px" id="id4_r21" d="m 240,240 30,0 0,30 -30,0 z"/>
<path style="fill:none;stroke:#000000;stroke-width:1px" id="id4_r22" d="m 250,250 30,0 0,30 -30,0 z"/>
<path style="fill:none;stroke:#000000;stroke-width:1px" id="id4_r23" d="m 260,260 30,0 0,30 -30,0 z"/>
<path style="fill:none;stroke:#000000;stroke-width:1px" id="id4_r24" d="m 270,270 30,0 0,30 -30,0 z"/>
<path style="fill:none;stroke:#000000;stroke-width:1px" id="id4_r25" d="m 280,280 30,0 0,30 -30,0 z"/>
<path style="fill:none;stroke:#000000;stroke-width:1px" id="id4_r26" d="m 290,290 30,0 0,30 -30,0 z"/>
<path style="fill:none;stroke:#000000;stroke-width:1px" id="id4_r27" d="m 300,300 30,0 0,30 -30,0 z"/>
<path style="fill:none;stroke:#000000;stroke-width:1px" id="id4_r28" d="m 310,310 30,0 0,30 -30,0 z"/>
<path style="fill:none;stroke:#000000;stroke-width:1px" id="id4_r29" d="m 320,320 30,0 0,30 -30,0 z"/>
<path style="fill:none;stroke:#000000;stroke-width:1px" id="id4_r30" d="m 330,330 30,0 0,30 -30,0 z"/>
<path style="fill:none;stroke:#000000;stroke-width:1px" id="id4_r31" d="m 340,340 30,0 0,30 -30,0 z"/>
<path style="fill:none;stroke:#000000;stroke-width:1px" id="id4_r32" d="m 350,350 30,0 0,30 -30,0 z"/>
<path style="fill:none;stroke:#000000;stroke-width:1px" id="id4_r33" d="m 360,360 30,0 0,30 -30,0 z"/>
<path style="fill:none;stroke:#000000;stroke-width:1px" id="id4_r34" d="m 370,370 30,0 0,30 -30,0 z"/>
<path style="fill:none;stroke:#000000;stroke-width:1px" id="id4_r35" d="m 380,380 30,0 0,30 -30,0 z"/>
<path style="fill:none;stroke:#000000;stroke-width:1px" id="id4_r36" d="m 390,390 30,0 0,30 -30,0 z"/>
<path style="fill:none;stroke:#000000;stroke-width:1px" id="id4_r37" d="m 400,400 30,0 0,30 -30,0 z"/>
<path style="fill:none;stroke:#000000;stroke-width:1px" id="id4_r38" d="m 410,410 30,0 0,30 -30,0 z"/>
<path style="fill:none;stroke:#000000;stroke-width:1px" id="id4_r39" d="m 420,420 30,0 0,30 -30,0 z"/>
<path style="fill:none;stroke:#000000;stroke-width:1px" id="id4_r40" d="m 430,430 30,0 0,30 -30,0 z"/>
<path style="fill:none;stroke:#000000;stroke-width:1px" id="id4_r41" d="m 440,440 30,0 0,30 -30,0 z"/>
</svg>
