P2
# ufsc.pgm
24 7
255
0   0   0   0   0   0   0   0   0   0   0   0   0   0   0   0   0   0   0   0   0   0   0  0
0  50   0   0  50   0   0 150 150 150 150   0   0 200 200 199 200   0   0 250 250 250 250  0
0  49   0   0  49   0   0 150   0   0   0   0   0 200   0   0   0   0   0 250   0   0   0  0
0  50   0   0  50   0   0 150 150 150   0   0   0 200 200 200 200   0   0 250   0   0   0  0
0  50   0   0  50   0   0 150   0   0   0   0   0   0   0   0 200   0   0 250   0   0   0  0
0  50  50  50  50   0   0 150   0   0   0   0   0 200 200 200 200   0   0 250 250 250 250  0
0   0   0   0   0   0   0   0   0   0   0   0   0   0   0   0   0   0   0   0   0   0   0  0
