P2
# Image Processing in Prolog - UFSC 2015
24 7
255
255 255 255 255 255 255 255 255 255 255 255 255 255 255 255 255 255 255 255 255 255 255 255 255 
255 205 255 255 205 255 255 105 105 105 105 255 255 55 55 56 55 255 255 5 5 5 5 255 
255 206 255 255 206 255 255 105 255 255 255 255 255 55 255 255 255 255 255 5 255 255 255 255 
255 205 255 255 205 255 255 105 105 105 255 255 255 55 55 55 55 255 255 5 255 255 255 255 
255 205 255 255 205 255 255 105 255 255 255 255 255 255 255 255 55 255 255 5 255 255 255 255 
255 205 205 205 205 255 255 105 255 255 255 255 255 55 55 55 55 255 255 5 5 5 5 255 
255 255 255 255 255 255 255 255 255 255 255 255 255 255 255 255 255 255 255 255 255 255 255 255 
